PathFileType	4	(X/Y/Z)	C:/Users/beibeiliu/ov580/test_trc/User2\sequence.24_training_dense_right.trc
DataRate	CameraRate	NumFrames	NumMarkers	Units	OrigDataRate	OrigDataStartFrame	OrigNumFrames
120	120	12	19	mm	120	339	451
Frame#	Time	ThumbCMC			ThumbMCP			ThumbIP			ThumbTip			IndexMCP			IndexPIP			IndexTip			MiddleMCP			MiddlePIP			MiddleTip			RingMCP			RingPIP			RingTip			PinkyMCP			PinkyPIP			PinkyTip			BackHand1			BackHand2			BackHand3	
		X0	Y0	Z0	X1	Y1	Z1	X2	Y2	Z2	X3	Y3	Z3	X4	Y4	Z4	X5	Y5	Z5	X6	Y6	Z6	X7	Y7	Z7	X8	Y8	Z8	X9	Y9	Z9	X10	Y10	Z10	X11	Y11	Z11	X12	Y12	Z12	X13	Y13	Z13	X14	Y14	Z14	X15	Y15	Z15	X16	Y16	Z16	X17	Y17	Z17	X18	Y18	Z18	
338	2.81667	77.6111	-104.281	68.3777	84.4473	-142	46.1554	107.157	-165.176	29.0329	129.241	-174.227	19.3818	109.578	-99.2396	-8.23502	114.103	-109.385	-37.8753	127.458	-117.442	-60.09	133.732	-98.2549	-14.3593	141.043	-109.12	-41.892	146.343	-118.971	-67.3743	154.709	-120.847	6.80525	150.362	-153.054	8.66002	132.93	-163.777	37.7898	162.619	-127.461	31.4633	151.372	-158.475	39.9858	127.504	-165.214	56.8773	137.215	-72.7791	50.5442	127.991	-61.7147	77.581	99.5244	-67.2771	54.5	
339	2.825	78.0263	-103.178	62.1155	82.9443	-137.218	49.9498	104.802	-160.445	28.117	126.709	-175.063	15.1335	111.422	-98.1157	-13.5593	114.036	-106.462	-35.3957	125.272	-114.724	-61.6711	134.828	-96.551	-15.7547	141.752	-107.552	-38.6932	149.77	-118.214	-71.5211	154.286	-121.846	4.86957	150.969	-153.389	6.66822	126.459	-163.282	36.3674	162.685	-127.182	30.9208	151.8	-157.534	35.4696	128.411	-164.131	55.5226	142.164	-74.0145	48.7619	130.169	-59.8732	80.3639	100.869	-65.1629	52.8651	
340	2.83333	80.9517	-97.3459	61.6448	78.6255	-134.884	43.1021	94.3901	-161.141	24.5582	117.309	-175.015	15.3628	110.905	-94.4859	-12.7709	122.091	-105.471	-39.5913	128.866	-113.647	-60.7094	138.291	-98.8473	-18.1007	142.651	-109.926	-44.0011	152.245	-119.821	-69.1204	153.718	-124.369	3.81575	145.531	-157.236	5.41826	124.451	-164.029	31.2304	160.949	-132.104	28.6668	147.278	-160.536	35.0923	121.574	-162.478	57.7708	145.481	-77.4546	47.0273	140.754	-64.3645	74.3087	109.145	-64.1103	47.8276	
341	2.84167	77.96	-90.4213	56.7328	77.4648	-124.616	39.1439	87.5853	-154.11	20.8184	109.746	-170.876	10.6229	115.864	-94.3673	-18.225	122.436	-104.908	-43.7681	130.005	-113.554	-63.8923	135.423	-99.6098	-20.2811	141.195	-111.322	-45.308	153.498	-125.419	-72.9975	151.005	-128.924	2.96271	138.993	-159.94	4.59095	118.27	-164.382	31.8188	158.308	-141.577	26.3495	137.98	-162.49	34.2299	114.465	-154.852	54.6495	148.615	-78.8324	45.3658	142.111	-62.5064	72.5021	115.925	-64.6396	47.2017	
342	2.85	79.1479	-82.809	52.4574	72.8747	-115.285	36.8325	83.1348	-144.832	17.771	99.3345	-164.103	6.42643	117.005	-91.0593	-16.848	122.224	-100.751	-42.2946	129.935	-111.75	-68.0111	136.853	-98.1529	-24.321	142.382	-111.201	-46.5751	147.299	-123.301	-74.4227	144.026	-133.364	-3.65905	130.195	-159.219	-0.400993	105.926	-158.595	29.2668	153.168	-143.584	22.8426	124.307	-160.835	32.2024	108.199	-148.663	57.183	154.431	-83.6498	39.1403	148.495	-67.5592	71.6003	122.048	-60.6458	47.2436	
343	2.85833	82.3207	-75.9899	53.8829	69.8216	-107.321	34.7571	72.4249	-137.127	14.6308	88.6876	-158.627	3.44915	115.787	-84.218	-23.4428	119.068	-94.3752	-47.1656	127.976	-107.937	-72.2198	137.301	-96.2296	-26.6856	141.2	-111.168	-54.0726	144.287	-122.261	-82.2289	137.43	-129.467	-6.09309	120.467	-154.593	-6.25477	95.0333	-152.046	25.0758	143.296	-141.992	18.669	116.502	-159.536	29.3902	100.129	-141.388	55.3203	154.227	-85.926	40.8823	151.864	-69.8148	71.8707	121.467	-58.1875	45.9112	
344	2.86667	82.1241	-69.4641	48.725	64.7419	-101.588	29.4895	67.8541	-129.355	14.0959	80.4035	-151.081	3.65271	118.58	-81.5137	-25.1644	119.021	-89.599	-50.2329	122.462	-100.949	-74.036	137.438	-94.947	-22.862	138.536	-107.021	-56.014	139.54	-116.987	-84.1483	132.92	-126.017	-9.457	111.985	-148.58	-10.937	91.031	-147.234	19.6049	137.831	-138.507	15.2633	106.098	-154.539	28.1105	93.9731	-136.375	51.8035	152.536	-88.412	34.6995	153.387	-71.9713	70.0266	127.192	-57.365	41.4343	
345	2.875	85.7346	-65.8402	51.5296	61.8158	-93.4151	32.5327	58.3228	-125.18	12.9766	74.521	-149.538	1.81352	112.961	-74.7758	-23.913	118.54	-88.9255	-53.2744	120.186	-98.7087	-75.9772	132.77	-90.1357	-26.4883	134.876	-103.667	-54.4238	135.182	-116.058	-85.9083	129.155	-128.097	-11.599	100.293	-146.048	-9.59105	83.5604	-140.14	17.8596	130.004	-141.653	14.128	98.7999	-148.999	26.3859	90.4392	-130.068	49.1075	151.733	-87.2553	33.8632	154.337	-74.2641	66.5521	125.532	-54.0971	38.2198	
346	2.88333	84.7783	-62.831	49.8687	61.8362	-90.5196	33.7569	57.376	-123.572	13.0497	71.3817	-145.56	6.74654	114.36	-78.5147	-26.5654	116.019	-90.9692	-52.8673	116.081	-98.827	-76.5792	131.119	-94.1233	-30.231	129.738	-104.82	-57.575	128.37	-116.543	-84.7433	122.484	-127.462	-11.0517	93.2452	-145.152	-5.94202	80.1862	-136.171	22.6598	122.842	-136.163	14.0892	91.3037	-145.249	27.4364	86.0231	-125.421	47.9717	151.314	-89.3769	34.7532	153.609	-72.6485	67.1713	128.576	-57.7501	39.2574	
347	2.89167	81.6407	-57.4537	48.5134	57.5368	-87.79	33.3836	54.3903	-121.432	16.685	61.2216	-146.36	8.64708	112.887	-81.0822	-24.6735	109.942	-90.0606	-56.0365	110.746	-102.843	-74.6285	126.639	-96.9189	-29.9353	122.475	-110.285	-59.6138	122.931	-125.918	-83.6943	113.593	-129.841	-8.86665	86.6801	-143.544	-4.23623	74.0402	-128.646	29.6332	116.83	-139.094	16.8955	84.0786	-143.505	33.0787	80.4851	-124.074	52.1172	145.041	-90.1212	34.5067	150.936	-76.6605	62.2062	130.503	-55.4985	38.2294	
348	2.9	83.3008	-56.8321	46.4938	54.5856	-84.2973	33.4004	50.0714	-117.973	18.249	55.7254	-141.724	14.686	110.206	-84.0447	-28.1131	108.014	-96.8553	-49.6721	105.854	-108.086	-75.481	123.355	-102.579	-26.1343	115.842	-115.757	-57.6687	113.713	-131.041	-81.0473	104.803	-131.048	-7.68435	76.4231	-143.456	4.71601	68.0731	-120.574	33.3117	105.956	-140.895	17.9712	77.8617	-142.489	31.35	75.2637	-116.914	55.6626	141.006	-93.3116	31.8173	147.513	-75.8813	62.544	128.495	-58.2984	35.7892	
349	2.90833	86.2766	-52.3256	48.0319	54.0028	-79.3882	34.3328	41.3967	-108.953	23.3682	43.1962	-137.725	15.7589	106.383	-85.1261	-26.0811	102.47	-101.232	-52.2664	99.8312	-115.902	-73.4029	115.664	-104.229	-27.7111	108.359	-120.434	-53.039	101.941	-135.971	-79.8116	96.9941	-131.257	-1.72497	67.699	-137.442	5.91573	63.4674	-117.392	38.3466	98.2525	-138.728	21.8416	68.0778	-137.501	34.6088	67.378	-113.71	57.0059	137.414	-98.0904	32.7586	147.827	-84.3639	64.1335	128.518	-58.955	35.1805	
